<svg width="244" height="86" viewBox="0 0 244 86" fill="none" xmlns="http://www.w3.org/2000/svg">
<path d="M101.756 34.9487C101.756 30.9563 103.4 27.7076 106.687 25.2026C110.014 22.6975 114.359 21.445 119.721 21.445C125.123 21.445 129.526 22.7562 132.932 25.3787C136.376 28.0012 138.098 30.741 138.098 33.5983C138.098 33.9506 137.961 34.2637 137.687 34.5377C137.452 34.7726 137.178 34.89 136.865 34.89H125.123C124.223 34.89 123.401 34.5573 122.657 33.8919C121.913 33.2265 120.915 32.8938 119.663 32.8938C117.784 32.8938 116.845 33.4418 116.845 34.5377C116.845 35.1248 117.295 35.6141 118.195 36.0055C119.134 36.3969 120.857 36.7492 123.362 37.0623C129.194 37.806 133.343 39.1759 135.808 41.1721C138.313 43.1292 139.566 46.1235 139.566 50.155C139.566 54.1474 137.726 57.4157 134.047 59.9598C130.407 62.4649 125.632 63.7174 119.721 63.7174C113.811 63.7174 109.173 62.504 105.807 60.0773C102.441 57.6505 100.758 54.6954 100.758 51.2118C100.758 50.8595 100.875 50.566 101.11 50.3311C101.384 50.0572 101.697 49.9202 102.049 49.9202H113.204C114.026 49.9202 114.927 50.3116 115.905 51.0944C116.923 51.8772 118.312 52.2686 120.074 52.2686C123.009 52.2686 124.477 51.7206 124.477 50.6247C124.477 49.9202 123.949 49.3918 122.892 49.0395C121.835 48.6481 119.839 48.2567 116.903 47.8652C106.805 46.5345 101.756 42.2289 101.756 34.9487Z" fill="#101010"/>
<path d="M155.048 22.0321H167.789C169.198 22.0321 170.079 22.678 170.431 23.9696L183.524 61.4276C183.563 61.5451 183.582 61.7408 183.582 62.0148C183.582 62.2496 183.445 62.504 183.171 62.778C182.936 63.0128 182.643 63.1303 182.291 63.1303H171.429C170.255 63.1303 169.491 62.641 169.139 61.6625L167.73 57.7875H155.107L153.698 61.6625C153.346 62.641 152.582 63.1303 151.408 63.1303H140.547C140.194 63.1303 139.881 63.0128 139.607 62.778C139.372 62.504 139.255 62.2496 139.255 62.0148C139.255 61.7408 139.275 61.5451 139.314 61.4276L152.406 23.9696C152.759 22.678 153.639 22.0321 155.048 22.0321ZM158.101 46.3387H164.736L161.389 35.4184L158.101 46.3387Z" fill="#101010"/>
<path d="M198.915 63.1303H186.938C186.507 63.1303 186.136 62.9737 185.822 62.6606C185.509 62.3475 185.353 61.9756 185.353 61.5451V23.6174C185.353 23.1868 185.509 22.815 185.822 22.5018C186.136 22.1887 186.507 22.0321 186.938 22.0321H198.915C199.346 22.0321 199.718 22.1887 200.031 22.5018C200.344 22.815 200.5 23.1868 200.5 23.6174V61.5451C200.5 61.9756 200.344 62.3475 200.031 62.6606C199.718 62.9737 199.346 63.1303 198.915 63.1303Z" fill="#101010"/>
<path d="M226.55 36.71C226.981 36.2012 227.196 35.5945 227.196 34.89C227.196 34.1854 226.981 33.5592 226.55 33.0112C226.159 32.4241 225.572 32.1305 224.789 32.1305H219.857V37.4733H224.789C225.572 37.4733 226.159 37.2189 226.55 36.71ZM219.857 47.2781V53.0319H225.317C226.218 53.0319 226.883 52.7383 227.314 52.1512C227.783 51.5249 228.018 50.84 228.018 50.0963V50.0376C228.018 49.2939 227.764 48.6481 227.255 48.1001C226.785 47.5521 226.139 47.2781 225.317 47.2781H219.857ZM226.844 63.1303H206.765C206.334 63.1303 205.962 62.9737 205.649 62.6606C205.336 62.3475 205.179 61.9756 205.179 61.5451V23.6174C205.179 23.1868 205.336 22.815 205.649 22.5018C205.962 22.1887 206.334 22.0321 206.765 22.0321H226.257C231.815 22.0321 235.905 23.0498 238.528 25.0851C241.189 27.0813 242.52 30.1148 242.52 34.1854V34.3616C242.52 36.0446 242.031 37.5516 241.052 38.8824C240.074 40.174 238.997 41.1134 237.823 41.7005C239.389 42.3268 240.7 43.4423 241.757 45.0471C242.853 46.6127 243.401 48.3349 243.401 50.2137C243.401 58.8248 237.882 63.1303 226.844 63.1303Z" fill="#101010"/>
<path fill-rule="evenodd" clip-rule="evenodd" d="M40.2836 3.45557C35.6762 -1.15186 28.2061 -1.15185 23.5987 3.45558L3.45557 23.5987C-1.15186 28.2061 -1.15186 35.6762 3.45557 40.2836L23.5987 60.4268C28.2061 65.0342 35.6762 65.0342 40.2836 60.4268C44.8911 55.8193 44.8911 48.3492 40.2836 43.7418L38.5546 42.0127C32.9922 36.4503 32.9922 27.432 38.5546 21.8696L40.2836 20.1405C44.8911 15.5331 44.8911 8.063 40.2836 3.45557ZM46.1773 82.233C50.7848 86.8404 58.2549 86.8404 62.8623 82.233L83.0054 62.0899C87.6129 57.4824 87.6129 50.0123 83.0054 45.4049L62.8623 25.2618C58.2549 20.6543 50.7848 20.6543 46.1773 25.2618C41.5699 29.8692 41.5699 37.3393 46.1774 41.9468L47.9064 43.6758C53.4688 49.2382 53.4688 58.2566 47.9064 63.8189L46.1773 65.548C41.5699 70.1554 41.5699 77.6255 46.1773 82.233Z" fill="url(#paint0_linear_1_176)"/>
<defs>
<linearGradient id="paint0_linear_1_176" x1="-9.18908" y1="-6.64542" x2="82.1352" y2="98.0876" gradientUnits="userSpaceOnUse">
<stop stop-color="#19B8EA"/>
<stop offset="0.5" stop-color="#4F37EA"/>
<stop offset="1" stop-color="#D714E8"/>
</linearGradient>
</defs>
</svg>
